<svg xmlns="http://www.w3.org/2000/svg" xmlns:xlink="http://www.w3.org/1999/xlink" preserveAspectRatio="xMidYMid" width="12" height="23" viewBox="0 0 12 23">
  <defs>
    <style>

      .cls-2 {
        fill: #999999;
      }
    </style>
  </defs>
  <path d="M11.333,12.506 C11.333,12.506 11.863,8.418 11.863,8.418 C11.863,8.418 7.793,8.418 7.793,8.418 C7.793,8.418 7.793,5.808 7.793,5.808 C7.793,4.624 8.123,3.818 9.830,3.818 C9.830,3.818 12.007,3.817 12.007,3.817 C12.007,3.817 12.007,0.161 12.007,0.161 C11.630,0.110 10.338,-0.001 8.835,-0.001 C5.697,-0.001 3.548,1.905 3.548,5.403 C3.548,5.403 3.548,8.418 3.548,8.418 C3.548,8.418 -0.002,8.418 -0.002,8.418 C-0.002,8.418 -0.002,12.506 -0.002,12.506 C-0.002,12.506 3.548,12.506 3.548,12.506 C3.548,12.506 3.548,22.996 3.548,22.996 C3.548,22.996 7.793,22.996 7.793,22.996 C7.793,22.996 7.793,12.506 7.793,12.506 C7.793,12.506 11.333,12.506 11.333,12.506 Z" id="path-1" class="cls-2" fill-rule="evenodd"/>
</svg>
