<svg xmlns="http://www.w3.org/2000/svg" xmlns:xlink="http://www.w3.org/1999/xlink" preserveAspectRatio="xMidYMid" width="21" height="21" viewBox="0 0 21 21">
  <defs>
    <style>

      .cls-2 {
        fill: #999999;
      }
    </style>
  </defs>
  <path d="M16.648,20.993 C16.648,20.993 16.648,14.178 16.648,14.178 C16.648,12.551 16.616,10.461 14.388,10.461 C12.125,10.461 11.779,12.232 11.779,14.060 C11.779,14.060 11.779,20.993 11.779,20.993 C11.779,20.993 7.432,20.993 7.432,20.993 C7.432,20.993 7.432,6.978 7.432,6.978 C7.432,6.978 11.604,6.978 11.604,6.978 C11.604,6.978 11.604,8.893 11.604,8.893 C11.604,8.893 11.663,8.893 11.663,8.893 C12.244,7.791 13.663,6.629 15.779,6.629 C20.179,6.629 20.992,9.531 20.992,13.305 C20.992,13.305 20.992,20.993 20.992,20.993 C20.992,20.993 16.648,20.993 16.648,20.993 ZM2.529,5.062 C1.135,5.062 0.008,3.930 0.008,2.536 C0.008,1.143 1.135,0.011 2.529,0.011 C3.919,0.011 5.049,1.143 5.049,2.536 C5.049,3.930 3.919,5.062 2.529,5.062 ZM4.704,20.993 C4.704,20.993 0.353,20.993 0.353,20.993 C0.353,20.993 0.353,6.978 0.353,6.978 C0.353,6.978 4.704,6.978 4.704,6.978 C4.704,6.978 4.704,20.993 4.704,20.993 Z" id="path-1" class="cls-2" fill-rule="evenodd"/>
</svg>
