<svg xmlns="http://www.w3.org/2000/svg" xmlns:xlink="http://www.w3.org/1999/xlink" preserveAspectRatio="xMidYMid" width="22" height="18" viewBox="0 0 22 18">
  <defs>
    <style>

      .cls-2 {
        fill: #999999;
      }
    </style>
  </defs>
  <path d="M21.006,2.077 C20.233,2.428 19.402,2.665 18.529,2.772 C19.420,2.225 20.104,1.360 20.426,0.329 C19.592,0.835 18.669,1.203 17.687,1.401 C16.900,0.543 15.780,0.006 14.539,0.006 C12.157,0.006 10.227,1.983 10.227,4.421 C10.227,4.767 10.265,5.104 10.338,5.427 C6.754,5.243 3.577,3.485 1.450,0.814 C1.078,1.466 0.866,2.225 0.866,3.034 C0.866,4.565 1.627,5.916 2.784,6.708 C2.077,6.686 1.412,6.487 0.831,6.156 C0.831,6.175 0.830,6.193 0.830,6.212 C0.830,8.351 2.317,10.135 4.290,10.541 C3.928,10.641 3.547,10.695 3.154,10.695 C2.876,10.695 2.606,10.668 2.342,10.616 C2.891,12.370 4.484,13.647 6.371,13.682 C4.895,14.866 3.035,15.572 1.015,15.572 C0.667,15.572 0.324,15.551 -0.014,15.510 C1.895,16.763 4.162,17.493 6.597,17.493 C14.529,17.493 18.867,10.767 18.867,4.933 C18.867,4.741 18.863,4.552 18.854,4.362 C19.697,3.739 20.428,2.962 21.006,2.077 Z" id="path-1" class="cls-2" fill-rule="evenodd"/>
</svg>
